HIERARCHY
ROOT Hips
{
 OFFSET 0.000000 0.000000 0.000000
 CHANNELS 6 Xposition Yposition Zposition Yrotation Xrotation Zrotation
 JOINT Chest
 {
  OFFSET 0.000000 9.585900 0.002600
  CHANNELS 3 Yrotation Xrotation Zrotation
  JOINT Chest2
  {
   OFFSET 0.000000 9.601200 -0.005300
   CHANNELS 3 Yrotation Xrotation Zrotation
   JOINT Chest3
   {
    OFFSET 0.000000 9.561800 0.000000
    CHANNELS 3 Yrotation Xrotation Zrotation
    JOINT Chest4
    {
     OFFSET 0.000000 9.552100 0.000000
     CHANNELS 3 Yrotation Xrotation Zrotation
     JOINT Neck
     {
      OFFSET 0.000000 14.453000 0.000000
      CHANNELS 3 Yrotation Xrotation Zrotation
      JOINT Head
      {
       OFFSET 0.000000 8.936500 -0.011300
       CHANNELS 3 Yrotation Xrotation Zrotation
       End Site
       {
        OFFSET 0.000000 17.073600 -0.006000
       }
      }
     }
     JOINT RightCollar
     {
      OFFSET -2.921100 9.558500 0.000000
      CHANNELS 3 Yrotation Xrotation Zrotation
      JOINT RightShoulder
      {
       OFFSET -13.519700 0.000000 0.000000
       CHANNELS 3 Yrotation Xrotation Zrotation
       JOINT RightElbow
       {
        OFFSET 0.000000 -29.696600 0.000000
        CHANNELS 3 Yrotation Xrotation Zrotation
        JOINT RightWrist
        {
         OFFSET 0.000000 -24.004700 0.000000
         CHANNELS 3 Yrotation Xrotation Zrotation
         End Site
         {
          OFFSET 0.000000 -17.728500 0.000000
         }
        }
       }
      }
     }
     JOINT LeftCollar
     {
      OFFSET 2.921100 9.558500 0.000000
      CHANNELS 3 Yrotation Xrotation Zrotation
      JOINT LeftShoulder
      {
       OFFSET 13.519700 0.000000 0.000000
       CHANNELS 3 Yrotation Xrotation Zrotation
       JOINT LeftElbow
       {
        OFFSET 0.000000 -29.696600 0.000000
        CHANNELS 3 Yrotation Xrotation Zrotation
        JOINT LeftWrist
        {
         OFFSET 0.000000 -24.004700 0.000000
         CHANNELS 3 Yrotation Xrotation Zrotation
         End Site
         {
          OFFSET 0.000000 -17.728500 0.000000
         }
        }
       }
      }
     }
    }
   }
  }
 }
 JOINT RightHip
 {
  OFFSET -7.771700 -0.012900 -0.001300
  CHANNELS 3 Yrotation Xrotation Zrotation
  JOINT RightKnee
  {
   OFFSET 0.000000 -40.869800 0.001200
   CHANNELS 3 Yrotation Xrotation Zrotation
   JOINT RightAnkle
   {
    OFFSET 0.000000 -39.717900 0.002100
    CHANNELS 3 Yrotation Xrotation Zrotation
    JOINT RightToe
    {
     OFFSET 0.000000 -4.965400 11.033500
     CHANNELS 3 Yrotation Xrotation Zrotation
     End Site
     {
      OFFSET 0.000000 -1.423100 5.872300
     }
    }
   }
  }
 }
 JOINT LeftHip
 {
  OFFSET 7.771700 -0.012900 -0.001300
  CHANNELS 3 Yrotation Xrotation Zrotation
  JOINT LeftKnee
  {
   OFFSET 0.000000 -40.869800 0.001200
   CHANNELS 3 Yrotation Xrotation Zrotation
   JOINT LeftAnkle
   {
    OFFSET 0.000000 -39.717900 0.002100
    CHANNELS 3 Yrotation Xrotation Zrotation
    JOINT LeftToe
    {
     OFFSET 0.000000 -4.965400 11.033500
     CHANNELS 3 Yrotation Xrotation Zrotation
     End Site
     {
      OFFSET 0.000000 -1.423100 5.872300
     }
    }
   }
  }
 }
}
MOTION
Frames: 13
Frame Time: 0.008333
-16.225068 58.328487 59.556553 179.455785 -27.357813 -2.260674 3.551347 19.296410 4.023917 0.332921 2.367271 0.237928 0.552313 3.907507 0.403456 2.632749 16.766008 2.051970 0.469174 14.590486 -0.438305 1.021255 -8.723958 -1.013855 3.093284 -0.931140 -0.108860 1.093169 -25.719056 -9.554956 136.649807 -46.873448 -139.286648 17.047615 0.548520 -43.068542 -9.082422 -1.082340 -2.717352 32.810654 -23.237606 -10.657697 -131.869692 -32.565408 144.717020 -9.160486 -3.706208 30.473896 5.866600 -43.529657 -2.725810 -1.218919 69.442887 -5.768328 5.824675 5.766736 9.282059 -0.122322 0.094882 -0.058838 -4.406956 -50.599622 -2.030250 27.929028 62.189710 27.264142 -11.985175 36.648988 5.912695 0.426517 -18.845590 -7.100878
-16.223275 58.329156 59.557854 179.451250 -27.360050 -2.253925 3.553714 19.288899 4.015991 0.332832 2.371171 0.239329 0.552909 3.898423 0.401209 2.641373 16.706330 2.036264 0.429723 14.567509 -0.459458 1.025083 -8.657743 -0.988599 3.085210 -0.870214 -0.087728 1.092531 -25.748942 -9.579010 136.648313 -46.881773 -139.284936 17.074293 0.516482 -43.069862 -9.087676 -1.047831 -2.710124 32.853680 -23.287032 -10.670206 -131.881498 -32.589009 144.683450 -9.169915 -3.703306 30.474117 5.870710 -43.528141 -2.736038 -1.231781 69.440748 -5.774723 5.836806 5.769426 9.276647 -0.121983 0.096559 -0.057174 -4.401815 -50.593069 -2.026500 27.911789 62.188779 27.241691 -11.980143 36.640045 5.913210 0.422641 -18.836973 -7.099081
-16.221522 58.329931 59.559265 179.450970 -27.359112 -2.249574 3.553732 19.270042 4.006794 0.333278 2.366719 0.238796 0.553626 3.891449 0.400241 2.647703 16.679997 2.031604 0.417226 14.597695 -0.454110 0.983030 -8.692831 -1.008383 3.080075 -0.867932 -0.090332 1.083086 -25.738414 -9.585925 136.646898 -46.911245 -139.281096 17.084941 0.500952 -43.074000 -9.091728 -1.034321 -2.708089 32.854331 -23.270768 -10.650947 -131.901053 -32.573096 144.721712 -9.163661 -3.718801 30.521025 5.872694 -43.529299 -2.748164 -1.224498 69.439534 -5.759502 5.838515 5.772751 9.275203 -0.116171 0.097750 -0.060579 -4.397821 -50.591158 -2.026420 27.886389 62.189395 27.214032 -11.961897 36.638574 5.922372 0.423272 -18.835773 -7.104212
-16.216411 58.330727 59.561167 179.450164 -27.353374 -2.265798 3.563101 19.242931 4.023354 0.334647 2.344099 0.233278 0.553064 3.902157 0.403758 2.646883 16.688969 2.032417 0.408317 14.594900 -0.458538 0.943302 -8.727703 -1.028820 3.082120 -0.927723 -0.111160 1.066158 -25.677162 -9.568532 136.648632 -46.915593 -139.283988 17.094421 0.483789 -43.081673 -9.091621 -1.086341 -2.710231 32.848787 -23.226458 -10.612966 -131.911956 -32.551313 144.756560 -9.163020 -3.713509 30.519911 5.854490 -43.525805 -2.729725 -1.246504 69.415796 -5.761711 5.840437 5.776776 9.257459 -0.103713 0.109730 -0.059015 -4.419293 -50.594137 -1.992861 27.864825 62.189166 27.188173 -11.935454 36.647234 5.946706 0.403940 -18.844607 -7.111720
-16.214586 58.331611 59.562640 179.453403 -27.347827 -2.264494 3.559180 19.218292 4.014717 0.333668 2.357358 0.237255 0.554391 3.876838 0.397706 2.649166 16.697508 2.035652 0.389783 14.567303 -0.475454 0.877111 -8.781743 -1.064521 3.080624 -0.917785 -0.107183 1.070572 -25.714191 -9.598534 136.656426 -46.932355 -139.283820 17.101407 0.488352 -43.084096 -9.091494 -1.081452 -2.707383 32.874267 -23.244110 -10.622674 -131.917373 -32.554549 144.743424 -9.171310 -3.717362 30.548559 5.852079 -43.530993 -2.740441 -1.235258 69.413828 -5.743411 5.845256 5.780760 9.254895 -0.104365 0.108270 -0.062154 -4.422016 -50.600349 -1.989712 27.854365 62.187113 27.171663 -11.916893 36.665879 5.965166 0.393910 -18.862667 -7.117613
-16.210083 58.332462 59.564371 179.452992 -27.339355 -2.277115 3.565302 19.195749 4.025711 0.333603 2.353816 0.236917 0.554339 3.871125 0.397020 2.650541 16.686389 2.034299 0.353005 14.518018 -0.510580 0.848495 -8.772986 -1.070596 3.083178 -0.929703 -0.117638 1.061965 -25.717578 -9.609276 136.655024 -46.943258 -139.277597 17.100795 0.493612 -43.081921 -9.091406 -1.066325 -2.706356 32.890402 -23.255522 -10.632095 -131.918274 -32.551466 144.732988 -9.172422 -3.714300 30.550768 5.839198 -43.530752 -2.720769 -1.242624 69.393206 -5.741904 5.832772 5.787720 9.244500 -0.093769 0.116567 -0.058692 -4.440538 -50.609049 -1.963586 27.853039 62.181595 27.166306 -11.904932 36.693735 5.988081 0.386555 -18.886060 -7.131064
-16.206224 58.333390 59.565599 179.456940 -27.332258 -2.286549 3.569126 19.164116 4.033166 0.328922 2.361723 0.236404 0.554738 3.865544 0.395774 2.653877 16.676010 2.030119 0.333023 14.510573 -0.522203 0.815495 -8.792008 -1.085431 3.094724 -0.984118 -0.142174 1.036173 -25.669722 -9.593395 136.654296 -46.942286 -139.273139 17.096683 0.499749 -43.079994 -9.092623 -1.069578 -2.698645 32.940046 -23.263507 -10.651013 -131.939898 -32.541883 144.732999 -9.163132 -3.699331 30.523791 5.826570 -43.529719 -2.710628 -1.242960 69.376919 -5.731920 5.823524 5.792053 9.232599 -0.088212 0.127389 -0.050485 -4.454956 -50.615478 -1.948843 27.866391 62.171479 27.178388 -11.904197 36.714478 5.999879 0.381971 -18.903034 -7.139331
-16.200166 58.334760 59.565743 179.457555 -27.331212 -2.305480 3.581273 19.150355 4.053954 0.326887 2.358645 0.236467 0.561482 3.841158 0.390695 2.655812 16.657481 2.021336 0.309537 14.527505 -0.522678 0.779632 -8.811858 -1.098491 3.093961 -0.969068 -0.137828 1.030075 -25.665263 -9.598651 136.648302 -46.942833 -139.264175 17.084640 0.520437 -43.078159 -9.101794 -1.043383 -2.680476 32.977123 -23.261086 -10.663050 -131.965438 -32.531711 144.753347 -9.166436 -3.699227 30.520895 5.796187 -43.519457 -2.676837 -1.222947 69.352738 -5.703582 5.803187 5.801389 9.214849 -0.075693 0.135555 -0.046951 -4.479249 -50.618681 -1.914548 27.874993 62.170273 27.185438 -11.895282 36.739855 6.012227 0.373781 -18.928791 -7.144454
-16.196671 58.336037 59.565258 179.458251 -27.332094 -2.306501 3.587641 19.143328 4.056258 0.325603 2.350745 0.234966 0.560263 3.846797 0.391573 2.662663 16.636737 2.015138 0.293909 14.537392 -0.521768 0.735889 -8.852393 -1.119397 3.097585 -0.978373 -0.145139 1.022353 -25.660125 -9.603824 136.637850 -46.946420 -139.253379 17.073058 0.535899 -43.080802 -9.107458 -1.047754 -2.663572 32.987871 -23.236915 -10.660611 -131.982588 -32.512413 144.795195 -9.166800 -3.720279 30.564693 5.792938 -43.518077 -2.683803 -1.233815 69.351406 -5.699107 5.811824 5.803856 9.202734 -0.069243 0.135923 -0.045824 -4.486368 -50.618734 -1.902566 27.884746 62.167005 27.190217 -11.908439 36.761058 6.015389 0.381350 -18.950115 -7.152919
-16.191607 58.336262 59.566293 179.468436 -27.320763 -2.318545 3.588233 19.122262 4.063470 0.328822 2.347283 0.235972 0.554889 3.850135 0.391931 2.669057 16.615146 2.008644 0.278336 14.547647 -0.520538 0.691760 -8.892601 -1.137933 3.102445 -0.987107 -0.153184 1.002374 -25.638211 -9.593016 136.645675 -46.927638 -139.260199 17.077811 0.547711 -43.076600 -9.110514 -1.049067 -2.651950 32.993577 -23.218116 -10.653555 -132.004559 -32.494137 144.831442 -9.164391 -3.727103 30.583721 5.767999 -43.528943 -2.673186 -1.232292 69.348508 -5.695055 5.824686 5.806372 9.194265 -0.074666 0.134741 -0.043352 -4.521203 -50.633915 -1.862348 27.971585 62.147729 27.253745 -11.983985 36.790113 5.998044 0.405630 -18.975310 -7.152536
-16.187784 58.336320 59.566933 179.471242 -27.310081 -2.317062 3.595097 19.100388 4.061061 0.322389 2.344230 0.233829 0.555946 3.843599 0.391255 2.677672 16.605815 2.007072 0.254671 14.533759 -0.529575 0.653283 -8.907769 -1.145895 3.108019 -0.997078 -0.162594 0.978568 -25.616443 -9.578967 136.664299 -46.912629 -139.269077 17.076258 0.523200 -43.069131 -9.119728 -1.050567 -2.639595 33.017553 -23.214133 -10.649987 -132.026236 -32.488422 144.861192 -9.160479 -3.730364 30.579087 5.764206 -43.537880 -2.676648 -1.229911 69.344739 -5.688184 5.820372 5.810175 9.187302 -0.074748 0.136514 -0.041618 -4.536996 -50.645919 -1.846233 28.007401 62.138811 27.273728 -11.994532 36.809292 6.005746 0.407001 -18.994330 -7.157398
-16.182999 58.336882 59.566119 179.473733 -27.307151 -2.318752 3.603962 19.089533 4.065565 0.324028 2.339603 0.231512 0.556154 3.838103 0.389882 2.675900 16.601309 2.007173 0.224114 14.489056 -0.558198 0.621744 -8.897259 -1.139752 3.115278 -1.014618 -0.175720 0.984189 -25.637986 -9.602766 136.690265 -46.928317 -139.279281 17.076151 0.578958 -43.058336 -9.124978 -1.059741 -2.629438 33.077694 -23.231959 -10.651923 -132.072649 -32.511362 144.868692 -9.158759 -3.731084 30.573359 5.760476 -43.542427 -2.680399 -1.226438 69.348047 -5.673618 5.819308 5.814634 9.176325 -0.067714 0.136569 -0.038532 -4.556863 -50.649978 -1.824485 28.045653 62.132422 27.298697 -12.010486 36.823081 6.003192 0.404070 -19.009207 -7.155610
-16.177626 58.337114 59.565536 179.477675 -27.300244 -2.322937 3.606017 19.078836 4.069953 0.338850 2.321881 0.232300 0.555918 3.826004 0.387845 2.660260 16.626850 2.010304 0.218295 14.486743 -0.560645 0.577356 -8.940871 -1.162045 3.119845 -1.026796 -0.183763 0.992252 -25.648828 -9.619902 136.703813 -46.940770 -139.285839 17.078743 0.599657 -43.056778 -9.122351 -1.081771 -2.620021 33.103602 -23.225189 -10.649771 -132.122667 -32.483992 144.930433 -9.151040 -3.703620 30.533195 5.749077 -43.550719 -2.679293 -1.227537 69.349067 -5.668658 5.833844 5.817641 9.170578 -0.070962 0.134528 -0.038917 -4.575464 -50.657579 -1.805282 28.087135 62.125517 27.334631 -12.032787 36.824931 5.989143 0.413264 -19.017607 -7.153330
